<svg version="1.1" id="Layer_1" xmlns="http://www.w3.org/2000/svg" xmlns:xlink="http://www.w3.org/1999/xlink" x="0px" y="0px" width="595.28px" height="841.89px" viewBox="257.4070129394531 381.22698974609375 79.36502075195312 79.36599731445312" enable-background="new 0 0 595.28 841.89" xml:space="preserve">
<path fill="#173254" d="M310.317,460.593h-26.456v-3.307c0-1.826,1.481-3.307,3.307-3.307h23.148V460.593z"></path>
<path fill="#173254" d="M321.891,450.672c-10.696,0-14.401-9.535-14.866-14.577c-0.039-0.427,0.005-0.856,0.129-1.267l11.573-38.029
	c0.424-1.392,1.709-2.344,3.164-2.344c1.455,0,2.74,0.952,3.164,2.344l11.574,38.029c0.124,0.41,0.168,0.84,0.129,1.267
	C336.293,441.137,332.588,450.672,321.891,450.672z M313.69,436.066c0.336,2.018,1.868,7.992,8.2,7.992
	c6.322,0,7.86-5.956,8.201-7.994l-8.201-26.944L313.69,436.066z"></path>
<path fill="#173254" d="M272.288,450.672c-10.697,0-14.403-9.535-14.867-14.577c-0.039-0.427,0.005-0.856,0.129-1.267l11.574-38.029
	c0.424-1.393,1.708-2.344,3.164-2.344s2.74,0.952,3.164,2.344l11.574,38.029c0.125,0.41,0.168,0.84,0.129,1.267
	C286.69,441.137,282.984,450.672,272.288,450.672z M264.087,436.066c0.336,2.018,1.869,7.992,8.201,7.992
	c6.353,0,7.876-6.05,8.202-7.991l-8.202-26.948L264.087,436.066z"></path>
<rect x="293.783" y="397.762" fill="#173254" width="6.614" height="56.217"></rect>
<rect x="257.407" y="394.455" fill="#173254" width="79.365" height="6.614"></rect>
<path fill="#173254" d="M290.476,387.841h-6.614v-3.307c0-1.826,1.481-3.307,3.307-3.307h23.148v6.614H290.476z"></path>
<rect x="310.317" y="432.484" fill="#173254" width="23.147" height="6.613"></rect>
<rect x="260.714" y="432.484" fill="#173254" width="23.148" height="6.613"></rect>
</svg>