<?xml version="1.0" encoding="UTF-8"?>
<svg width="161px" height="27px" viewBox="0 0 161 27" version="1.1" xmlns="http://www.w3.org/2000/svg" xmlns:xlink="http://www.w3.org/1999/xlink">
    <!-- Generator: Sketch 57.1 (83088) - https://sketch.com -->
    <title>consultatio-logo-blanco</title>
    <desc>Created with Sketch.</desc>
    <g id="Page-1" stroke="none" stroke-width="1" fill="none" fill-rule="evenodd">
        <g id="00-CONSULTATIO_PROPIETARIOS_Elementos-y-estados-de-hover" transform="translate(-770.000000, -125.000000)" fill="#FFFFFF">
            <g id="consultatio-logo" transform="translate(770.000000, 125.000000)">
                <g id="Layer_1">
                    <g id="Group">
                        <path d="M137.706383,7.1296875 C137.706383,8.3109375 138.691223,9.2390625 139.84734,9.2390625 C141.131915,9.2390625 142.202394,8.184375 142.202394,6.8765625 C142.202394,5.7375 141.303191,4.7671875 140.061436,4.7671875 C138.819681,4.7671875 137.706383,5.8640625 137.706383,7.1296875 Z" id="Shape"></path>
                        <path d="M92.7890957,13.33125 L96.8569149,13.33125 L96.8569149,23.1609375 C96.8569149,24.975 97.6276596,26.1984375 99.5973404,26.1984375 C101.65266,26.1984375 103.022872,24.1734375 104.264628,22.275 L106.063032,19.490625 C105.934574,23.709375 107.304787,26.1140625 109.65984,26.1140625 C110.944415,26.1140625 112.143351,25.65 113.984574,22.95 L116.039894,19.8703125 L116.039894,23.1609375 C116.039894,24.975 116.810638,26.1984375 118.651862,26.1984375 C120.707181,26.1984375 122.077394,24.384375 123.319149,22.528125 L126.402128,17.7609375 L126.402128,23.1609375 C126.402128,24.975 127.172872,26.1984375 129.142553,26.1984375 C131.197872,26.1984375 132.568085,24.384375 133.80984,22.528125 L138.048936,15.9890625 L138.048936,23.203125 C138.048936,25.0171875 138.819681,26.240625 140.789362,26.240625 C142.844681,26.240625 144.214894,24.4265625 145.456649,22.5703125 L146.484309,21.009375 C147.383511,24.2578125 150.209574,26.2828125 153.506649,26.2828125 C157.103457,26.2828125 160.785904,23.203125 160.785904,18.6890625 C160.785904,13.66875 157.874202,10.96875 153.506649,10.96875 C152.478989,10.96875 151.793883,11.4328125 151.665426,11.8125 C151.579787,12.1078125 151.708245,12.2765625 151.96516,12.2765625 C155.604787,12.403125 156.418351,14.259375 156.418351,18.6046875 C156.418351,22.190625 155.390691,24.975 153.549468,24.975 C151.408511,24.975 150.637766,22.4859375 150.637766,18.5625 L150.637766,16.2 C150.637766,15.4828125 150.166755,14.765625 149.353191,14.765625 C148.882181,14.765625 148.710904,14.8921875 147.040957,15.6515625 C146.441489,15.9046875 146.141755,16.875 146.098936,18.05625 L144.428989,20.7140625 C143.743883,21.76875 143.315691,22.190625 142.801862,22.190625 C142.330851,22.190625 141.988298,21.8953125 141.988298,21.3046875 L142.031117,12.909375 C142.031117,12.1921875 141.560106,11.475 140.703723,11.475 C140.232713,11.475 139.89016,11.6859375 137.87766,12.571875 L132.782181,20.671875 C132.097074,21.7265625 131.668883,22.1484375 131.155053,22.1484375 C130.684043,22.1484375 130.341489,21.853125 130.341489,21.2625 L130.341489,13.33125 L133.296011,13.33125 C134.066755,13.33125 134.366489,13.1203125 135.522606,11.30625 L130.341489,11.30625 L130.341489,5.23125 C130.341489,4.5140625 129.870479,3.8390625 129.056915,3.8390625 C128.543085,3.8390625 128.328989,4.0078125 126.402128,4.809375 L126.402128,11.3484375 L124.732181,11.3484375 C122.848138,11.3484375 122.505585,11.475 122.505585,13.3734375 L126.402128,13.3734375 L126.402128,14.34375 L122.334309,20.75625 C121.606383,21.9375 121.221011,22.6546875 120.707181,22.6546875 C120.321809,22.6546875 119.893617,22.44375 119.893617,21.76875 L119.893617,17.296875 C119.893617,16.5796875 119.422606,15.9046875 118.566223,15.9046875 C118.352128,15.9046875 118.052394,15.946875 117.75266,16.0734375 L116.039894,16.790625 L113.128191,21.2203125 C112.357447,22.4015625 111.629521,22.6125 111.244149,22.6125 C110.601862,22.6125 110.002394,22.3171875 110.002394,20.1234375 C110.002394,15.69375 111.972074,13.246875 113.856117,13.246875 C116.082713,13.246875 116.425266,14.4703125 117.067553,14.4703125 C117.281649,14.4703125 117.495745,14.34375 117.495745,14.1328125 C117.495745,12.909375 115.611702,11.30625 113.128191,11.30625 C110.516223,11.30625 108.289628,12.5296875 106.833777,15.1875 L103.236968,20.7140625 C102.551862,21.76875 102.12367,22.190625 101.60984,22.190625 C101.13883,22.190625 100.796277,21.8953125 100.796277,21.3046875 L100.796277,13.33125 L103.750798,13.33125 C104.521543,13.33125 104.821277,13.1203125 105.977394,11.30625 L100.796277,11.30625 L100.796277,5.23125 C100.796277,4.5140625 100.325266,3.8390625 99.468883,3.8390625 C98.9550532,3.8390625 98.7409574,4.0078125 96.8140957,4.809375 L96.8140957,11.3484375 L94.9300532,11.3484375 C93.0888298,11.30625 92.7890957,11.4328125 92.7890957,13.33125 Z" id="Shape"></path>
                        <path d="M0,15.4828125 C0,23.034375 4.1962766,26.83125 9.20611702,26.83125 C12.7601064,26.83125 15.243617,24.1734375 16.8707447,21.178125 C17.8984043,24.5953125 20.9385638,26.2828125 23.850266,26.2828125 C27.5327128,26.2828125 31.1295213,23.709375 31.1295213,18.73125 C31.1295213,16.5796875 30.2731383,14.7234375 28.6031915,13.246875 C29.9305851,13.1203125 30.4444149,12.9515625 31.3864362,12.9515625 C33.5273936,12.9515625 34.3837766,14.090625 34.3837766,15.9046875 L34.3837766,24.6375 C34.3837766,25.3546875 34.8547872,26.0296875 35.7111702,26.0296875 C35.925266,26.0296875 36.225,25.9875 36.524734,25.8609375 L38.5800532,24.975 L42.7335106,17.0015625 C43.2901596,15.9890625 43.5898936,15.525 44.1465426,15.525 C44.6175532,15.525 44.9172872,15.8203125 44.9172872,16.3265625 L44.8744681,23.203125 C44.8744681,25.0171875 45.6452128,26.240625 47.6148936,26.240625 C49.6702128,26.240625 50.4837766,24.5953125 51.8539894,22.528125 L56.8210106,15.2296875 C59.1760638,18.9 60.7175532,20.5875 60.7175532,21.9375 C60.7175532,23.2453125 59.8611702,24.215625 58.5765957,24.215625 C56.8638298,24.215625 55.9218085,23.3296875 55.193883,22.865625 C54.9797872,22.7390625 54.6800532,22.4859375 54.4231383,22.4859375 C54.2946809,22.4859375 54.2090426,22.528125 54.1234043,22.6125 C53.9949468,22.7390625 53.9949468,22.9078125 53.9949468,23.0765625 C53.9949468,23.4140625 54.1234043,23.79375 54.4659574,24.13125 C55.8789894,25.5234375 57.5489362,26.240625 59.1332447,26.240625 C62.1305851,26.240625 64.7425532,24.1734375 64.7425532,20.671875 C64.7425532,17.2125 61.7023936,14.6390625 60.4606383,12.3609375 C60.075266,11.64375 59.0047872,11.30625 57.7630319,11.30625 L55.3651596,13.2890625 L50.9547872,20.7140625 C50.2696809,21.853125 50.0984043,22.190625 49.5417553,22.190625 C49.0707447,22.190625 48.8138298,21.8109375 48.8138298,21.3046875 L48.8138298,14.3859375 C48.8138298,12.571875 48.0430851,11.3484375 46.0734043,11.3484375 C44.0180851,11.3484375 42.8191489,13.078125 41.8343085,15.0609375 L38.4087766,21.76875 L38.4944149,14.5546875 C38.537234,12.65625 37.5095745,11.390625 35.6255319,11.390625 L23.5933511,11.3484375 C22.1803191,11.3484375 20.7672872,11.4328125 20.7672872,12.7828125 C20.7672872,13.584375 21.3239362,14.00625 21.7093085,14.259375 L25.1776596,13.66875 C26.2481383,14.934375 26.7191489,16.4953125 26.7191489,18.646875 C26.7191489,22.2328125 25.4773936,25.0171875 23.850266,25.0171875 C21.8805851,25.0171875 20.9385638,21.5578125 20.9385638,18.73125 C20.9385638,17.55 21.1098404,16.4953125 21.3667553,15.9046875 C21.1526596,15.35625 20.7672872,14.9765625 19.7396277,14.9765625 L18.6691489,14.9765625 C17.6414894,14.9765625 16.6994681,15.8203125 16.5281915,17.55 C14.6869681,22.528125 12.6744681,25.228125 9.8912234,25.228125 C6.55132979,25.228125 5.18111702,21.6 5.18111702,15.4828125 C5.18111702,8.4796875 7.62180851,1.3078125 9.76276596,1.3078125 C11.218617,1.3078125 11.3042553,5.484375 11.3042553,8.5640625 L11.3042553,9.9984375 C11.6039894,10.3359375 12.075,10.546875 12.5460106,10.546875 C12.8029255,10.546875 13.1026596,10.5046875 13.2739362,10.3359375 L14.0018617,9.7875 C14.7726064,9.2390625 15.4148936,8.690625 15.4148936,7.171875 C15.4577128,5.2734375 14.6869681,0 9.76276596,0 C4.36755319,2.99760217e-15 0,8.3953125 0,15.4828125 Z" id="Shape"></path>
                        <path d="M92.1468085,25.9453125 C91.8042553,25.3125 91.5901596,24.0046875 91.5901596,21.853125 L91.5901596,1.5609375 C91.5901596,0.84375 91.1191489,0.16875 90.262766,0.16875 C89.7489362,0.16875 89.5348404,0.3375 87.6079787,1.1390625 L87.6079787,13.2890625 L83.9255319,20.4609375 C83.368883,21.5578125 83.1119681,21.9375 82.5981383,21.9375 C82.212766,21.9375 81.8702128,21.6421875 81.8702128,21.0515625 L81.8702128,12.6984375 C81.8702128,11.98125 81.3992021,11.30625 80.5428191,11.30625 C79.9861702,11.30625 79.7292553,11.475 77.6739362,12.3609375 L73.5204787,20.4609375 C72.9638298,21.5578125 72.7069149,21.9375 72.1930851,21.9375 C71.7220745,21.9375 71.3795213,21.6421875 71.3795213,21.0515625 L71.3795213,12.6140625 C71.3795213,11.896875 70.9085106,11.221875 70.0521277,11.221875 C69.7523936,11.221875 69.7523936,11.2640625 66.8406915,12.1921875 L67.3973404,16.3265625 L67.3973404,22.95 C67.3973404,24.7640625 68.1680851,25.9875 70.137766,25.9875 C72.1930851,25.9875 73.3920213,24.2578125 74.3768617,22.275 L77.8023936,15.5671875 L77.8023936,22.95 C77.8023936,24.7640625 78.5731383,25.9875 80.5428191,25.9875 C82.5981383,25.9875 83.7970745,24.2578125 84.7819149,22.275 L87.6079787,16.7484375 L87.6079787,21.2203125 L87.6079787,21.2203125 C87.6079787,24.9328125 88.9353723,26.7890625 90.862234,26.7890625 C91.5901596,26.7890625 92.4037234,26.49375 92.1468085,25.9453125 Z" id="Shape"></path>
                    </g>
                </g>
            </g>
        </g>
    </g>
</svg>