<?xml version="1.0" encoding="utf-8"?>
<!-- Generator: Adobe Illustrator 24.1.2, SVG Export Plug-In . SVG Version: 6.00 Build 0)  -->
<svg version="1.1" id="Layer_1" xmlns="http://www.w3.org/2000/svg" xmlns:xlink="http://www.w3.org/1999/xlink" x="0px" y="0px"
	 viewBox="0 0 72.8 72.8" style="enable-background:new 0 0 72.8 72.8;" xml:space="preserve">
<style type="text/css">
	.st0{fill:#FFFFFF;}
</style>
<path class="st0" d="M36.4,49.6c-7.3,0-13.2-5.9-13.2-13.2s5.9-13.2,13.2-13.2c7.3,0,13.2,5.9,13.2,13.2
	C49.6,43.7,43.7,49.6,36.4,49.6z M36.4,29.8c-3.7,0-6.6,3-6.6,6.6s3,6.6,6.6,6.6s6.6-3,6.6-6.6c0,0,0,0,0,0
	C43,32.7,40,29.8,36.4,29.8z"/>
<path class="st0" d="M43,72.8H29.8c-1.8,0-3.3-1.5-3.3-3.3v-8.5L26,60.7l-6,6c-1.3,1.3-3.4,1.3-4.7,0L6,57.4c-1.3-1.3-1.3-3.4,0-4.7
	l6-6c0-0.1-0.1-0.3-0.2-0.4H3.3C1.5,46.3,0,44.8,0,43V29.8c0-1.8,1.5-3.3,3.3-3.3h8.5c0-0.1,0.1-0.3,0.2-0.4l-6-6
	c-1.3-1.3-1.3-3.4,0-4.7L15.4,6c1.3-1.3,3.4-1.3,4.7,0c0,0,0,0,0,0l6,6l0.4-0.2V3.3c0-1.8,1.5-3.3,3.3-3.3H43c1.8,0,3.3,1.5,3.3,3.3
	v8.5l0.4,0.2l6-6c1.3-1.3,3.4-1.3,4.7,0c0,0,0,0,0,0l9.4,9.4c1.3,1.3,1.3,3.4,0,4.7c0,0,0,0,0,0l-6,6l0.2,0.4h8.5
	c1.8,0,3.3,1.5,3.3,3.3V43c0,1.8-1.5,3.3-3.3,3.3h-8.5c0,0.1-0.1,0.3-0.2,0.4l6,6c1.3,1.3,1.3,3.4,0,4.7l-9.4,9.4
	c-1.3,1.3-3.4,1.3-4.7,0l-6-6l-0.4,0.2v8.5C46.3,71.3,44.8,72.7,43,72.8z M33.1,66.1h6.6v-7.6c0-1.5,1-2.8,2.4-3.2
	c1.3-0.4,2.6-0.9,3.8-1.6c1.3-0.7,2.9-0.5,3.9,0.6l5.4,5.4l4.7-4.7l-5.4-5.4c-1-1-1.3-2.6-0.6-3.9c0.7-1.2,1.2-2.5,1.6-3.8
	c0.4-1.4,1.7-2.3,3.1-2.4h7.6v-6.6h-7.6c-1.5,0-2.8-1-3.2-2.4c-0.4-1.3-0.9-2.6-1.6-3.8c-0.7-1.3-0.5-2.9,0.6-3.9l5.4-5.4L55,13
	l-5.4,5.4c-1,1-2.6,1.3-3.9,0.6c-1.2-0.7-2.5-1.2-3.8-1.6c-1.4-0.4-2.4-1.7-2.4-3.2V6.6H33v7.6c0,1.5-1,2.8-2.4,3.2
	c-1.3,0.4-2.6,0.9-3.8,1.5c-1.3,0.7-2.9,0.5-3.9-0.6L17.6,13l-4.7,4.7l5.4,5.4c1,1,1.3,2.6,0.6,3.9c-0.7,1.2-1.2,2.5-1.6,3.8
	c-0.4,1.4-1.7,2.4-3.2,2.4H6.6v6.6h7.6c1.5,0,2.8,1,3.2,2.4c0.4,1.3,0.9,2.6,1.6,3.8c0.7,1.3,0.5,2.9-0.6,3.9L13,55.1l4.7,4.7
	l5.4-5.4c1-1,2.6-1.3,3.9-0.6c1.2,0.6,2.5,1.2,3.8,1.6c1.4,0.4,2.4,1.7,2.4,3.2L33.1,66.1z"/>
</svg>
