<?xml version="1.0" encoding="utf-8"?>
<!-- Generator: Adobe Illustrator 16.0.0, SVG Export Plug-In . SVG Version: 6.00 Build 0)  -->
<!DOCTYPE svg PUBLIC "-//W3C//DTD SVG 1.1//EN" "http://www.w3.org/Graphics/SVG/1.1/DTD/svg11.dtd">
<svg version="1.1" id="Layer_1" xmlns="http://www.w3.org/2000/svg" xmlns:xlink="http://www.w3.org/1999/xlink" x="0px" y="0px"
	 width="180px" height="30px" viewBox="0 0 180 30" enable-background="new 0 0 180 30" xml:space="preserve">
<g>
	<path fill-rule="evenodd" clip-rule="evenodd" fill="#002F55" d="M18.061,9.53c0.87,0.485,0.854,1.145,0.854,2.071v6.219
		l-6.019-7.597l-0.225-0.32c-0.112-0.131-0.176-0.208-0.247-0.402V9.485h-2.408V9.53c0.856,0.485,0.856,1.145,0.856,2.071v6.539
		c0,0.926,0,1.591-0.872,2.092v0.046h2.907v-0.046c-0.868-0.5-0.854-1.166-0.854-2.092v-6.356l5.646,7.151
		c0.73,0.933,1.231,1.488,2.399,1.878v-9.211c0-0.926,0-1.586,0.858-2.071V9.485h-2.896V9.53z"/>
	<path fill-rule="evenodd" clip-rule="evenodd" fill="#002F55" d="M30.154,9.188c-3.449-0.074-6.17,2.525-6.17,5.652
		c0,3.364,2.751,5.711,6.008,5.711c3.268,0,6.044-2.446,6.044-5.796C36.035,11.792,33.614,9.173,30.154,9.188z M30.068,19.37
		c-2.575,0-4.203-2.38-4.203-4.679c0-2.492,1.627-4.308,4.165-4.308c2.611,0,4.131,2.304,4.131,4.7
		C34.161,17.543,32.576,19.37,30.068,19.37z"/>
	<path fill-rule="evenodd" clip-rule="evenodd" fill="#002F55" d="M46.784,17.982l-2.373-2.977c1.356-0.314,2.621-1.444,2.621-2.904
		c0-1.47-1.197-2.616-3.405-2.616h-3.911V9.53c0.824,0.312,0.707,1.5,0.707,2.254v6.199c0,0.738,0.117,1.958-0.707,2.249v0.046
		h3.141v-0.046c-0.839-0.292-0.75-1.496-0.75-2.249v-7.351c0.374-0.07,0.75-0.114,1.122-0.127c1.102-0.049,2.121,0.632,2.121,1.808
		c0,1.543-1.525,2.156-2.854,2.345l1.523,2.319l2.011,2.494c0.48,0.593,1.029,0.807,1.904,0.807h1.509
		C48.501,19.695,47.468,18.841,46.784,17.982z"/>
	<path fill-rule="evenodd" clip-rule="evenodd" fill="#002F55" d="M55.866,9.485h-4.032V9.53c0.832,0.242,0.717,1.439,0.717,2.184
		v6.201c0,0.968,0.094,1.763-0.717,2.316v0.046h3.95c3.679,0,6.162-2.267,6.162-5.504C61.945,11.521,59.61,9.485,55.866,9.485z
		 M55.432,19.094c-0.407,0-0.81-0.028-1.199-0.11v-8.142c0.501-0.115,0.985-0.175,1.473-0.175c2.754,0,4.372,1.421,4.372,4.299
		C60.078,17.82,57.889,19.094,55.432,19.094z"/>
	<path fill-rule="evenodd" clip-rule="evenodd" fill="#002F55" d="M69.935,19.094L67.84,18.9v-3.895h1.222
		c0.502,0,1.195-0.018,1.451,0.462h0.052v-1.744h-0.052c-0.189,0.097-0.447,0.097-0.73,0.097H67.84v-3.04
		c0.524-0.106,1.105-0.114,1.677-0.114c0.755,0,1.433,0.06,1.935,0.658h0.053V9.4h-0.053c-0.207,0.117-0.488,0.085-0.775,0.085
		H65.42V9.53c0.846,0.312,0.739,1.5,0.739,2.254v6.199c0,0.738,0.107,1.958-0.739,2.249v0.046h6.862l0.746-2.149h-0.055
		C72.152,18.854,71.016,19.195,69.935,19.094z"/>
	<path fill-rule="evenodd" clip-rule="evenodd" fill="#002F55" d="M80.939,19.094l-2.233-0.142v-7.168
		c0-0.73-0.113-1.942,0.728-2.254V9.485h-3.141V9.53c0.846,0.312,0.743,1.5,0.743,2.254v6.199c0,0.738,0.103,1.958-0.743,2.249
		v0.046h6.768l0.833-2.185h-0.046C83.036,18.787,82.072,19.153,80.939,19.094z"/>
	<path fill-rule="evenodd" clip-rule="evenodd" fill="#002F55" d="M92.318,9.485h-6.135h-0.421c-0.212-0.036-0.416-0.036-0.61-0.118
		h-0.054l-0.582,1.958h0.05c0.51-0.483,1.242-0.658,1.956-0.658h1.446v7.315c0,0.738,0.11,1.942-0.717,2.249v0.046h3.255v-0.046
		c-0.877-0.5-0.855-1.155-0.855-2.092v-7.473h1.482c0.543,0,1.205,0.08,1.414,0.658h0.045l0.531-1.958H93.08
		C92.848,9.465,92.592,9.485,92.318,9.485z"/>
	<path fill-rule="evenodd" clip-rule="evenodd" fill="#002F55" d="M104.537,17.892l-3.434-8.406h-2.582V9.53
		c0.791,0.242,0.467,0.941,0.236,1.524l-2.754,6.838c-0.352,0.949-0.627,1.865-1.586,2.34v0.046h3.031v-0.046
		c-0.795-0.292-0.676-0.761-0.324-1.69l0.842-2.331h4.141l0.889,2.331c0.455,1.154,0.594,1.326-0.223,1.69v0.046h3.365v-0.046
		C105.221,19.757,104.906,18.841,104.537,17.892z M98.402,15.005l1.623-4.131l1.613,4.131H98.402z"/>
</g>
</svg>
