<?xml version="1.0" encoding="utf-8"?>
<!-- Generator: Adobe Illustrator 26.5.0, SVG Export Plug-In . SVG Version: 6.00 Build 0)  -->
<svg version="1.1" id="Capa_1" xmlns="http://www.w3.org/2000/svg" xmlns:xlink="http://www.w3.org/1999/xlink" x="0px" y="0px"
	 viewBox="0 0 315.83 80.21" style="enable-background:new 0 0 315.83 80.21;" xml:space="preserve">
<style type="text/css">
	.st1{fill:#FFFFFF !important;}
</style>
<g>
	<path class="st1" d="M140.93,25.64c-1.79,0-3.43,0.25-4.93,0.74c-1.5,0.49-2.83,1.13-3.98,1.9c-1.15,0.78-2.18,1.65-3.07,2.64
		c-0.9,0.98-1.63,1.96-2.21,2.94c0-0.98-0.09-2.2-0.26-3.67c-0.17-1.47-0.35-2.64-0.52-3.51c-0.64-0.11-1.22-0.2-1.77-0.26
		c-0.55-0.05-1.14-0.09-1.77-0.09c-0.64,0-1.25,0.03-1.86,0.09c-0.61,0.06-1.23,0.15-1.86,0.26v44.37c0.64,0.11,1.36,0.2,2.16,0.26
		c0.81,0.06,1.53,0.09,2.16,0.09c0.64,0,1.34-0.03,2.12-0.09c0.78-0.06,1.48-0.15,2.12-0.26V48.56c0-2.7,0.33-5.03,0.99-6.96
		c0.66-1.93,1.54-3.5,2.64-4.71c1.09-1.21,2.36-2.11,3.8-2.68c1.44-0.58,2.97-0.86,4.58-0.86c2.77,0,4.78,0.97,6.06,2.89
		c1.27,1.93,1.9,4.94,1.9,9.04v25.78c0.63,0.11,1.34,0.2,2.12,0.26c0.78,0.06,1.48,0.09,2.12,0.09c0.63,0,1.35-0.03,2.16-0.09
		c0.81-0.06,1.53-0.15,2.16-0.26V42.94c0-5.71-1.21-10.02-3.63-12.93C149.75,27.1,146,25.64,140.93,25.64z"/>
	<path class="st1" d="M199.65,32.39c-1.73-2.08-3.89-3.72-6.48-4.93c-2.59-1.21-5.62-1.82-9.08-1.82c-3.46,0-6.49,0.61-9.08,1.82
		c-2.59,1.21-4.76,2.85-6.49,4.93c-1.73,2.08-3.01,4.53-3.85,7.36c-0.84,2.82-1.26,5.88-1.26,9.17c0,3.29,0.42,6.34,1.26,9.17
		c0.83,2.83,2.12,5.28,3.85,7.35c1.73,2.07,3.89,3.71,6.49,4.88c2.6,1.18,5.62,1.77,9.08,1.77c3.46,0,6.48-0.59,9.08-1.77
		c2.59-1.18,4.76-2.81,6.48-4.88c1.73-2.08,3.01-4.53,3.85-7.35c0.83-2.83,1.25-5.88,1.25-9.17c0-3.29-0.42-6.34-1.25-9.17
		C202.66,36.92,201.38,34.47,199.65,32.39z M192.9,60.93c-1.9,2.88-4.84,4.33-8.82,4.33c-3.98,0-6.91-1.44-8.78-4.33
		c-1.88-2.88-2.81-6.89-2.81-12.02c0-5.14,0.93-9.12,2.81-11.98c1.87-2.85,4.8-4.28,8.78-4.28c3.98,0,6.92,1.43,8.82,4.28
		c1.9,2.86,2.85,6.85,2.85,11.98C195.76,54.04,194.8,58.05,192.9,60.93z"/>
	<path class="st1" d="M245.49,26.33c-0.75,0-1.53,0.03-2.34,0.09c-0.8,0.06-1.53,0.15-2.16,0.26L228.8,63.27l-12.11-36.59
		c-0.64-0.11-1.39-0.2-2.29-0.26c-0.9-0.05-1.72-0.09-2.47-0.09c-0.69,0-1.47,0.03-2.33,0.09c-0.87,0.06-1.7,0.15-2.51,0.26
		l17.22,44.37c0.69,0.11,1.39,0.2,2.12,0.26c0.72,0.06,1.39,0.09,2.03,0.09c0.63,0,1.33-0.03,2.07-0.09
		c0.75-0.06,1.5-0.15,2.25-0.26l17.3-44.37c-0.81-0.11-1.61-0.2-2.42-0.26C246.84,26.36,246.12,26.33,245.49,26.33z"/>
	<path class="st1" d="M259.56,19.18l0.3,0.05c1.01,0.18,2.11,0.3,3.25,0.36c1.13,0.05,2.19,0.08,3.13,0.08
		c1.01,0,2.07-0.03,3.18-0.08c1.12-0.06,2.2-0.18,3.21-0.36l0.3-0.05l0.05-0.3c0.18-0.98,0.29-1.99,0.35-2.99
		c0.06-1.03,0.09-1.97,0.09-2.88c0-0.95-0.03-1.94-0.09-2.92c-0.06-0.98-0.18-1.97-0.35-2.95l-0.05-0.3l-0.3-0.05
		c-1.01-0.18-2.1-0.31-3.24-0.39c-1.16-0.09-2.25-0.13-3.23-0.13c-0.93,0-1.97,0.04-3.1,0.13c-1.11,0.08-2.19,0.22-3.2,0.39
		l-0.3,0.05l-0.05,0.3c-0.35,2.03-0.53,4.01-0.53,5.87c0,1.91,0.18,3.89,0.53,5.87L259.56,19.18z"/>
	<path class="st1" d="M255.54,26.24c-0.35,1.53-0.53,3.1-0.53,4.68c0,0.76,0.04,1.57,0.13,2.43c0.09,0.85,0.22,1.67,0.4,2.43
		l0.08,0.33h5.7v35.31l0.36,0.06c2.08,0.35,4.11,0.53,6.04,0.53c1.98,0,4.04-0.18,6.13-0.53l0.36-0.06V25.9h-18.59L255.54,26.24z"/>
	<path class="st1" d="M310.07,61.04l-0.12-0.34l-0.36,0.06c-0.64,0.12-1.37,0.25-2.2,0.39c-1.87,0.32-3.86,0.27-5.22-0.12
		c-0.72-0.2-1.33-0.6-1.82-1.16c-0.5-0.58-0.89-1.39-1.16-2.42c-0.28-1.05-0.42-2.47-0.42-4.22V36.11h10.39l0.06-0.35
		c0.18-0.96,0.29-1.79,0.35-2.55c0.06-0.76,0.09-1.55,0.09-2.37c0-0.75-0.03-1.5-0.09-2.2c-0.06-0.7-0.18-1.5-0.35-2.39l-0.07-0.34
		h-10.38V12.84h-2.64l-16.3,20.84l-0.13,0.16l0.57,2.26h5.53v19.81c0,5.64,1.44,9.78,4.3,12.3c2.83,2.51,6.97,3.78,12.31,3.78
		c2.85,0,5.64-0.32,8.32-0.96l0.29-0.06l0.04-0.29c0.06-0.41,0.1-0.84,0.13-1.29c0.03-0.44,0.05-0.98,0.05-1.63
		c0-0.93-0.09-2.01-0.27-3.22C310.78,63.34,310.48,62.16,310.07,61.04z"/>
	<path class="st1" d="M55.62,67.28h-31.5c-1.79,0-3.24,1.45-3.24,3.24v0.01c0,1.79,1.45,3.24,3.24,3.24h31.5
		c1.79,0,3.24-1.45,3.24-3.24v-0.01C58.85,68.73,57.4,67.28,55.62,67.28z"/>
	<path class="st1" d="M72.69,56.46H41.72c-1.79,0-3.24,1.45-3.24,3.24v0c0,1.79,1.45,3.24,3.24,3.24h30.97
		c1.79,0,3.24-1.45,3.24-3.24v0C75.93,57.91,74.48,56.46,72.69,56.46z"/>
	<path class="st1" d="M82.22,45.63H55.26c-1.79,0-3.24,1.45-3.24,3.24v0.01c0,1.79,1.45,3.24,3.24,3.24h26.96
		c1.79,0,3.24-1.45,3.24-3.24v-0.01C85.46,47.08,84.01,45.63,82.22,45.63z"/>
	<path class="st1" d="M38.48,38.04v0.01c0,1.79,1.45,3.24,3.24,3.24h30.97c1.79,0,3.24-1.45,3.24-3.24v-0.01
		c0-1.79-1.45-3.24-3.24-3.24H41.72C39.93,34.81,38.48,36.26,38.48,38.04z"/>
	<path class="st1" d="M24.11,30.47h39.37c1.79,0,3.24-1.45,3.24-3.24v-0.01c0-1.79-1.45-3.24-3.24-3.24H24.11
		c-1.79,0-3.24,1.45-3.24,3.24v0.01C20.87,29.02,22.32,30.47,24.11,30.47z"/>
	<path class="st1" d="M7.84,24.17L7.84,24.17c-1.79,0-3.24,1.45-3.24,3.24v0c0,1.79,1.45,3.24,3.24,3.24h0
		c1.79,0,3.24-1.45,3.24-3.24v0C11.08,25.62,9.63,24.17,7.84,24.17z"/>
	<path class="st1" d="M7.84,34.99L7.84,34.99c-1.79,0-3.24,1.45-3.24,3.24v0c0,1.79,1.45,3.24,3.24,3.24h0
		c1.79,0,3.24-1.45,3.24-3.24v0C11.08,36.44,9.63,34.99,7.84,34.99z"/>
	<path class="st1" d="M7.84,45.82L7.84,45.82c-1.79,0-3.24,1.45-3.24,3.24v0c0,1.79,1.45,3.24,3.24,3.24h0
		c1.79,0,3.24-1.45,3.24-3.24v0C11.08,47.27,9.63,45.82,7.84,45.82z"/>
	<path class="st1" d="M7.84,56.64L7.84,56.64c-1.79,0-3.24,1.45-3.24,3.24c0,1.79,1.45,3.24,3.24,3.24h0c1.79,0,3.24-1.45,3.24-3.24
		C11.08,58.09,9.63,56.64,7.84,56.64z"/>
	<path class="st1" d="M7.84,67.46L7.84,67.46c-1.79,0-3.24,1.45-3.24,3.24v0c0,1.79,1.45,3.24,3.24,3.24h0
		c1.79,0,3.24-1.45,3.24-3.24v0C11.08,68.91,9.63,67.46,7.84,67.46z"/>
</g>
</svg>
